<svg id="visual" viewBox="0 0 900 600" width="900" height="600" xmlns="http://www.w3.org/2000/svg" xmlns:xlink="http://www.w3.org/1999/xlink" version="1.1"><rect x="0" y="0" width="900" height="600" fill="#7a37a1"></rect><defs><linearGradient id="grad1_0" x1="33.3%" y1="0%" x2="100%" y2="100%"><stop offset="20%" stop-color="#7a37a1" stop-opacity="1"></stop><stop offset="80%" stop-color="#7a37a1" stop-opacity="1"></stop></linearGradient></defs><defs><linearGradient id="grad2_0" x1="0%" y1="0%" x2="66.7%" y2="100%"><stop offset="20%" stop-color="#7a37a1" stop-opacity="1"></stop><stop offset="80%" stop-color="#7a37a1" stop-opacity="1"></stop></linearGradient></defs><g transform="translate(900, 0)"><path d="M0 486.7C-63.4 477.1 -126.8 467.4 -183.7 443.5C-240.6 419.5 -291.1 381.3 -337.3 337.3C-383.5 293.3 -425.5 243.5 -449.7 186.3C-473.9 129.1 -480.3 64.5 -486.7 0L0 0Z" fill="#8943b2"></path></g><g transform="translate(0, 600)"><path d="M0 -486.7C64.6 -480.8 129.3 -474.9 186.3 -449.7C243.3 -424.5 292.7 -380 331.6 -331.6C370.6 -283.3 399 -231.2 423.1 -175.3C447.2 -119.4 467 -59.7 486.7 0L0 0Z" fill="#8943b2"></path></g></svg>