<svg id="visual" viewBox="0 0 900 600" width="900" height="600" xmlns="http://www.w3.org/2000/svg" xmlns:xlink="http://www.w3.org/1999/xlink" version="1.1"><rect x="0" y="0" width="900" height="600" fill="#c24a1b"></rect><path d="M0 432L21.5 424.3C43 416.7 86 401.3 128.8 403.2C171.7 405 214.3 424 257.2 418C300 412 343 381 385.8 366.5C428.7 352 471.3 354 514.2 358.3C557 362.7 600 369.3 642.8 373.7C685.7 378 728.3 380 771.2 391.7C814 403.3 857 424.7 878.5 435.3L900 446L900 601L878.5 601C857 601 814 601 771.2 601C728.3 601 685.7 601 642.8 601C600 601 557 601 514.2 601C471.3 601 428.7 601 385.8 601C343 601 300 601 257.2 601C214.3 601 171.7 601 128.8 601C86 601 43 601 21.5 601L0 601Z" fill="#fa7268"></path><path d="M0 419L21.5 419.8C43 420.7 86 422.3 128.8 420.3C171.7 418.3 214.3 412.7 257.2 414.3C300 416 343 425 385.8 432C428.7 439 471.3 444 514.2 445.7C557 447.3 600 445.7 642.8 436.3C685.7 427 728.3 410 771.2 403C814 396 857 399 878.5 400.5L900 402L900 601L878.5 601C857 601 814 601 771.2 601C728.3 601 685.7 601 642.8 601C600 601 557 601 514.2 601C471.3 601 428.7 601 385.8 601C343 601 300 601 257.2 601C214.3 601 171.7 601 128.8 601C86 601 43 601 21.5 601L0 601Z" fill="#ef5f67"></path><path d="M0 482L21.5 480.5C43 479 86 476 128.8 475.8C171.7 475.7 214.3 478.3 257.2 481.2C300 484 343 487 385.8 487.8C428.7 488.7 471.3 487.3 514.2 486.5C557 485.7 600 485.3 642.8 479.8C685.7 474.3 728.3 463.7 771.2 456C814 448.3 857 443.7 878.5 441.3L900 439L900 601L878.5 601C857 601 814 601 771.2 601C728.3 601 685.7 601 642.8 601C600 601 557 601 514.2 601C471.3 601 428.7 601 385.8 601C343 601 300 601 257.2 601C214.3 601 171.7 601 128.8 601C86 601 43 601 21.5 601L0 601Z" fill="#e34c67"></path><path d="M0 520L21.5 515.3C43 510.7 86 501.3 128.8 503C171.7 504.7 214.3 517.3 257.2 522.5C300 527.7 343 525.3 385.8 520.8C428.7 516.3 471.3 509.7 514.2 509.7C557 509.7 600 516.3 642.8 513.8C685.7 511.3 728.3 499.7 771.2 494C814 488.3 857 488.7 878.5 488.8L900 489L900 601L878.5 601C857 601 814 601 771.2 601C728.3 601 685.7 601 642.8 601C600 601 557 601 514.2 601C471.3 601 428.7 601 385.8 601C343 601 300 601 257.2 601C214.3 601 171.7 601 128.8 601C86 601 43 601 21.5 601L0 601Z" fill="#d53867"></path><path d="M0 536L21.5 535.8C43 535.7 86 535.3 128.8 540.3C171.7 545.3 214.3 555.7 257.2 562C300 568.3 343 570.7 385.8 570.8C428.7 571 471.3 569 514.2 569.2C557 569.3 600 571.7 642.8 571.5C685.7 571.3 728.3 568.7 771.2 567.3C814 566 857 566 878.5 566L900 566L900 601L878.5 601C857 601 814 601 771.2 601C728.3 601 685.7 601 642.8 601C600 601 557 601 514.2 601C471.3 601 428.7 601 385.8 601C343 601 300 601 257.2 601C214.3 601 171.7 601 128.8 601C86 601 43 601 21.5 601L0 601Z" fill="#c62368"></path></svg>