<svg id="visual" viewBox="0 0 900 600" width="900" height="600" xmlns="http://www.w3.org/2000/svg" xmlns:xlink="http://www.w3.org/1999/xlink" version="1.1"><g stroke-width="1" stroke-linejoin="bevel"><path d="M443 307L459 284L391 274Z" fill="#8746ae" stroke="#8746ae"></path><path d="M439 233L387 263L391 274Z" fill="#9554bb" stroke="#9554bb"></path><path d="M459 284L439 233L391 274Z" fill="#7f3da6" stroke="#7f3da6"></path><path d="M391 274L424 339L443 307Z" fill="#8443ab" stroke="#8443ab"></path><path d="M443 307L538 332L459 284Z" fill="#7a37a1" stroke="#7a37a1"></path><path d="M387 263L353 269L391 274Z" fill="#9554bb" stroke="#9554bb"></path><path d="M391 274L392 356L424 339Z" fill="#8d4cb3" stroke="#8d4cb3"></path><path d="M326 248L353 269L387 263Z" fill="#7f3da6" stroke="#7f3da6"></path><path d="M327 324L392 356L391 274Z" fill="#9554bb" stroke="#9554bb"></path><path d="M314 159L326 248L387 263Z" fill="#7d3aa4" stroke="#7d3aa4"></path><path d="M353 269L327 324L391 274Z" fill="#8443ab" stroke="#8443ab"></path><path d="M326 248L327 324L353 269Z" fill="#8d4cb3" stroke="#8d4cb3"></path><path d="M327 324L386 380L392 356Z" fill="#8a49b1" stroke="#8a49b1"></path><path d="M392 356L386 380L424 339Z" fill="#8240a9" stroke="#8240a9"></path><path d="M513 368L443 307L424 339Z" fill="#8443ab" stroke="#8443ab"></path><path d="M513 368L538 332L443 307Z" fill="#8240a9" stroke="#8240a9"></path><path d="M459 284L527 184L439 233Z" fill="#8d4cb3" stroke="#8d4cb3"></path><path d="M513 375L513 368L424 339Z" fill="#7a37a1" stroke="#7a37a1"></path><path d="M513 368L541 339L538 332Z" fill="#7a37a1" stroke="#7a37a1"></path><path d="M386 380L513 375L424 339Z" fill="#8d4cb3" stroke="#8d4cb3"></path><path d="M513 368L513 375L541 339Z" fill="#7d3aa4" stroke="#7d3aa4"></path><path d="M568 255L459 284L538 332Z" fill="#8f4eb6" stroke="#8f4eb6"></path><path d="M568 255L527 184L459 284Z" fill="#8d4cb3" stroke="#8d4cb3"></path><path d="M314 159L290 201L326 248Z" fill="#8240a9" stroke="#8240a9"></path><path d="M624 259L568 255L630 335Z" fill="#9251b8" stroke="#9251b8"></path><path d="M573 163L517 158L527 184Z" fill="#7f3da6" stroke="#7f3da6"></path><path d="M527 184L517 158L439 233Z" fill="#8746ae" stroke="#8746ae"></path><path d="M376 128L387 263L439 233Z" fill="#8f4eb6" stroke="#8f4eb6"></path><path d="M326 248L250 322L327 324Z" fill="#7a37a1" stroke="#7a37a1"></path><path d="M290 201L281 215L326 248Z" fill="#8a49b1" stroke="#8a49b1"></path><path d="M447 111L376 128L439 233Z" fill="#9251b8" stroke="#9251b8"></path><path d="M376 128L314 159L387 263Z" fill="#8240a9" stroke="#8240a9"></path><path d="M216 256L235 263L281 215Z" fill="#8240a9" stroke="#8240a9"></path><path d="M517 158L447 111L439 233Z" fill="#7d3aa4" stroke="#7d3aa4"></path><path d="M438 471L519 425L513 375Z" fill="#8d4cb3" stroke="#8d4cb3"></path><path d="M513 375L588 448L541 339Z" fill="#9251b8" stroke="#9251b8"></path><path d="M615 238L610 230L568 255Z" fill="#9251b8" stroke="#9251b8"></path><path d="M351 116L315 140L314 159Z" fill="#8d4cb3" stroke="#8d4cb3"></path><path d="M314 159L240 167L290 201Z" fill="#8240a9" stroke="#8240a9"></path><path d="M351 116L314 159L376 128Z" fill="#7f3da6" stroke="#7f3da6"></path><path d="M337 42L351 116L388 26Z" fill="#7d3aa4" stroke="#7d3aa4"></path><path d="M517 158L491 110L447 111Z" fill="#7a37a1" stroke="#7a37a1"></path><path d="M235 263L250 322L326 248Z" fill="#8a49b1" stroke="#8a49b1"></path><path d="M291 422L370 459L386 380Z" fill="#8240a9" stroke="#8240a9"></path><path d="M491 110L444 95L447 111Z" fill="#9554bb" stroke="#9554bb"></path><path d="M447 111L444 95L376 128Z" fill="#8d4cb3" stroke="#8d4cb3"></path><path d="M568 255L573 163L527 184Z" fill="#7d3aa4" stroke="#7d3aa4"></path><path d="M517 158L528 96L491 110Z" fill="#9251b8" stroke="#9251b8"></path><path d="M291 422L386 380L327 324Z" fill="#8f4eb6" stroke="#8f4eb6"></path><path d="M386 380L438 471L513 375Z" fill="#9554bb" stroke="#9554bb"></path><path d="M216 256L281 215L189 208Z" fill="#9251b8" stroke="#9251b8"></path><path d="M281 215L235 263L326 248Z" fill="#9554bb" stroke="#9554bb"></path><path d="M615 238L568 255L624 259Z" fill="#7d3aa4" stroke="#7d3aa4"></path><path d="M568 255L610 230L573 163Z" fill="#8a49b1" stroke="#8a49b1"></path><path d="M370 459L438 471L386 380Z" fill="#8443ab" stroke="#8443ab"></path><path d="M568 255L538 332L630 335Z" fill="#8443ab" stroke="#8443ab"></path><path d="M672 131L576 149L573 163Z" fill="#8d4cb3" stroke="#8d4cb3"></path><path d="M261 412L291 422L327 324Z" fill="#8443ab" stroke="#8443ab"></path><path d="M672 131L573 163L610 230Z" fill="#9554bb" stroke="#9554bb"></path><path d="M573 163L576 149L517 158Z" fill="#8a49b1" stroke="#8a49b1"></path><path d="M491 110L449 80L444 95Z" fill="#9251b8" stroke="#9251b8"></path><path d="M388 26L351 116L376 128Z" fill="#7d3aa4" stroke="#7d3aa4"></path><path d="M528 96L449 80L491 110Z" fill="#8d4cb3" stroke="#8d4cb3"></path><path d="M630 335L538 332L541 339Z" fill="#9554bb" stroke="#9554bb"></path><path d="M576 149L528 96L517 158Z" fill="#8746ae" stroke="#8746ae"></path><path d="M240 167L281 215L290 201Z" fill="#7a37a1" stroke="#7a37a1"></path><path d="M235 263L216 256L250 322Z" fill="#9554bb" stroke="#9554bb"></path><path d="M250 322L261 412L327 324Z" fill="#8f4eb6" stroke="#8f4eb6"></path><path d="M197 392L261 412L250 322Z" fill="#8746ae" stroke="#8746ae"></path><path d="M291 422L316 462L370 459Z" fill="#8f4eb6" stroke="#8f4eb6"></path><path d="M588 448L630 335L541 339Z" fill="#8240a9" stroke="#8240a9"></path><path d="M307 488L316 462L291 422Z" fill="#7d3aa4" stroke="#7d3aa4"></path><path d="M370 459L384 506L438 471Z" fill="#8443ab" stroke="#8443ab"></path><path d="M244 110L240 167L315 140Z" fill="#7a37a1" stroke="#7a37a1"></path><path d="M315 140L240 167L314 159Z" fill="#8a49b1" stroke="#8a49b1"></path><path d="M643 434L644 343L630 335Z" fill="#9554bb" stroke="#9554bb"></path><path d="M630 335L699 322L624 259Z" fill="#8a49b1" stroke="#8a49b1"></path><path d="M337 525L384 506L370 459Z" fill="#9251b8" stroke="#9251b8"></path><path d="M438 471L494 506L519 425Z" fill="#8240a9" stroke="#8240a9"></path><path d="M384 506L472 507L438 471Z" fill="#7a37a1" stroke="#7a37a1"></path><path d="M519 425L588 448L513 375Z" fill="#9251b8" stroke="#9251b8"></path><path d="M494 506L588 448L519 425Z" fill="#8d4cb3" stroke="#8d4cb3"></path><path d="M472 507L494 506L438 471Z" fill="#7a37a1" stroke="#7a37a1"></path><path d="M316 462L307 488L370 459Z" fill="#8d4cb3" stroke="#8d4cb3"></path><path d="M261 412L307 488L291 422Z" fill="#7f3da6" stroke="#7f3da6"></path><path d="M699 322L664 228L624 259Z" fill="#8746ae" stroke="#8746ae"></path><path d="M624 259L664 228L615 238Z" fill="#8d4cb3" stroke="#8d4cb3"></path><path d="M615 238L664 228L610 230Z" fill="#8443ab" stroke="#8443ab"></path><path d="M576 149L576 78L528 96Z" fill="#9554bb" stroke="#9554bb"></path><path d="M240 167L189 208L281 215Z" fill="#7f3da6" stroke="#7f3da6"></path><path d="M158 354L197 392L250 322Z" fill="#8f4eb6" stroke="#8f4eb6"></path><path d="M337 42L244 110L315 140Z" fill="#9251b8" stroke="#9251b8"></path><path d="M240 167L170 164L189 208Z" fill="#8a49b1" stroke="#8a49b1"></path><path d="M337 42L315 140L351 116Z" fill="#9554bb" stroke="#9554bb"></path><path d="M608 77L576 78L576 149Z" fill="#8d4cb3" stroke="#8d4cb3"></path><path d="M521 0L467 0L449 80Z" fill="#7d3aa4" stroke="#7d3aa4"></path><path d="M388 26L444 95L449 80Z" fill="#7f3da6" stroke="#7f3da6"></path><path d="M388 26L376 128L444 95Z" fill="#8a49b1" stroke="#8a49b1"></path><path d="M467 0L388 26L449 80Z" fill="#7a37a1" stroke="#7a37a1"></path><path d="M158 319L250 322L216 256Z" fill="#9554bb" stroke="#9554bb"></path><path d="M198 513L278 548L307 488Z" fill="#7a37a1" stroke="#7a37a1"></path><path d="M278 548L337 525L307 488Z" fill="#7f3da6" stroke="#7f3da6"></path><path d="M307 488L337 525L370 459Z" fill="#9554bb" stroke="#9554bb"></path><path d="M384 506L368 565L472 507Z" fill="#9251b8" stroke="#9251b8"></path><path d="M472 507L505 563L494 506Z" fill="#8240a9" stroke="#8240a9"></path><path d="M622 493L635 439L588 448Z" fill="#9251b8" stroke="#9251b8"></path><path d="M588 448L635 439L630 335Z" fill="#8746ae" stroke="#8746ae"></path><path d="M644 343L699 322L630 335Z" fill="#8443ab" stroke="#8443ab"></path><path d="M635 439L643 434L630 335Z" fill="#9251b8" stroke="#9251b8"></path><path d="M143 316L158 319L216 256Z" fill="#8746ae" stroke="#8746ae"></path><path d="M672 131L608 77L576 149Z" fill="#8443ab" stroke="#8443ab"></path><path d="M521 0L449 80L528 96Z" fill="#8a49b1" stroke="#8a49b1"></path><path d="M643 434L672 400L644 343Z" fill="#7f3da6" stroke="#7f3da6"></path><path d="M672 400L699 322L644 343Z" fill="#8d4cb3" stroke="#8d4cb3"></path><path d="M690 160L672 131L610 230Z" fill="#7d3aa4" stroke="#7d3aa4"></path><path d="M158 319L158 354L250 322Z" fill="#7a37a1" stroke="#7a37a1"></path><path d="M194 109L240 167L244 110Z" fill="#7d3aa4" stroke="#7d3aa4"></path><path d="M194 109L170 164L240 167Z" fill="#8746ae" stroke="#8746ae"></path><path d="M189 208L143 316L216 256Z" fill="#8240a9" stroke="#8240a9"></path><path d="M521 0L528 96L576 78Z" fill="#9554bb" stroke="#9554bb"></path><path d="M388 26L352 0L337 42Z" fill="#8240a9" stroke="#8240a9"></path><path d="M94 279L143 316L189 208Z" fill="#7d3aa4" stroke="#7d3aa4"></path><path d="M158 319L143 316L158 354Z" fill="#8240a9" stroke="#8240a9"></path><path d="M257 18L194 109L244 110Z" fill="#8746ae" stroke="#8746ae"></path><path d="M690 160L610 230L664 228Z" fill="#7a37a1" stroke="#7a37a1"></path><path d="M467 0L352 0L388 26Z" fill="#7f3da6" stroke="#7f3da6"></path><path d="M337 42L257 18L244 110Z" fill="#8a49b1" stroke="#8a49b1"></path><path d="M732 208L690 160L664 228Z" fill="#7f3da6" stroke="#7f3da6"></path><path d="M749 429L725 373L672 400Z" fill="#9251b8" stroke="#9251b8"></path><path d="M635 439L694 479L643 434Z" fill="#8a49b1" stroke="#8a49b1"></path><path d="M572 568L622 493L588 448Z" fill="#7d3aa4" stroke="#7d3aa4"></path><path d="M572 568L588 448L494 506Z" fill="#9554bb" stroke="#9554bb"></path><path d="M278 548L368 565L337 525Z" fill="#7f3da6" stroke="#7f3da6"></path><path d="M337 525L368 565L384 506Z" fill="#8240a9" stroke="#8240a9"></path><path d="M307 488L261 412L190 482Z" fill="#9554bb" stroke="#9554bb"></path><path d="M555 0L576 78L558 0Z" fill="#8443ab" stroke="#8443ab"></path><path d="M555 0L521 0L576 78Z" fill="#8240a9" stroke="#8240a9"></path><path d="M368 565L505 563L472 507Z" fill="#8240a9" stroke="#8240a9"></path><path d="M558 0L576 78L604 12Z" fill="#8d4cb3" stroke="#8d4cb3"></path><path d="M604 12L576 78L608 77Z" fill="#8443ab" stroke="#8443ab"></path><path d="M190 482L261 412L197 392Z" fill="#7d3aa4" stroke="#7d3aa4"></path><path d="M352 0L257 18L337 42Z" fill="#8443ab" stroke="#8443ab"></path><path d="M139 441L197 392L158 354Z" fill="#8d4cb3" stroke="#8d4cb3"></path><path d="M139 441L190 482L197 392Z" fill="#7a37a1" stroke="#7a37a1"></path><path d="M699 322L732 208L664 228Z" fill="#7f3da6" stroke="#7f3da6"></path><path d="M690 160L732 132L672 131Z" fill="#7a37a1" stroke="#7a37a1"></path><path d="M672 400L725 373L699 322Z" fill="#9554bb" stroke="#9554bb"></path><path d="M699 322L739 211L732 208Z" fill="#8443ab" stroke="#8443ab"></path><path d="M694 479L672 400L643 434Z" fill="#7d3aa4" stroke="#7d3aa4"></path><path d="M646 0L604 12L608 77Z" fill="#8a49b1" stroke="#8a49b1"></path><path d="M646 0L608 77L672 131Z" fill="#7f3da6" stroke="#7f3da6"></path><path d="M743 341L739 211L699 322Z" fill="#9554bb" stroke="#9554bb"></path><path d="M732 208L732 132L690 160Z" fill="#8443ab" stroke="#8443ab"></path><path d="M725 373L743 341L699 322Z" fill="#7f3da6" stroke="#7f3da6"></path><path d="M527 600L572 568L505 563Z" fill="#8443ab" stroke="#8443ab"></path><path d="M505 563L572 568L494 506Z" fill="#8d4cb3" stroke="#8d4cb3"></path><path d="M622 493L694 479L635 439Z" fill="#7a37a1" stroke="#7a37a1"></path><path d="M352 0L255 0L257 18Z" fill="#7a37a1" stroke="#7a37a1"></path><path d="M174 28L141 108L194 109Z" fill="#8240a9" stroke="#8240a9"></path><path d="M361 600L370 600L368 565Z" fill="#8d4cb3" stroke="#8d4cb3"></path><path d="M368 565L370 600L505 563Z" fill="#8d4cb3" stroke="#8d4cb3"></path><path d="M102 452L198 513L190 482Z" fill="#7a37a1" stroke="#7a37a1"></path><path d="M190 482L198 513L307 488Z" fill="#8f4eb6" stroke="#8f4eb6"></path><path d="M280 600L361 600L368 565Z" fill="#8746ae" stroke="#8746ae"></path><path d="M280 600L368 565L278 548Z" fill="#8d4cb3" stroke="#8d4cb3"></path><path d="M84 437L139 441L158 354Z" fill="#7f3da6" stroke="#7f3da6"></path><path d="M174 28L194 109L257 18Z" fill="#7a37a1" stroke="#7a37a1"></path><path d="M194 109L141 108L170 164Z" fill="#9554bb" stroke="#9554bb"></path><path d="M73 254L94 279L78 206Z" fill="#9251b8" stroke="#9251b8"></path><path d="M143 316L94 311L158 354Z" fill="#8a49b1" stroke="#8a49b1"></path><path d="M94 279L189 208L78 206Z" fill="#8443ab" stroke="#8443ab"></path><path d="M572 568L613 551L622 493Z" fill="#8a49b1" stroke="#8a49b1"></path><path d="M94 279L94 311L143 316Z" fill="#8443ab" stroke="#8443ab"></path><path d="M613 551L694 479L622 493Z" fill="#8746ae" stroke="#8746ae"></path><path d="M725 373L804 369L743 341Z" fill="#7d3aa4" stroke="#7d3aa4"></path><path d="M141 108L119 135L170 164Z" fill="#9554bb" stroke="#9554bb"></path><path d="M572 568L588 600L613 551Z" fill="#8746ae" stroke="#8746ae"></path><path d="M370 600L527 600L505 563Z" fill="#8f4eb6" stroke="#8f4eb6"></path><path d="M770 164L732 132L732 208Z" fill="#7d3aa4" stroke="#7d3aa4"></path><path d="M527 600L554 600L572 568Z" fill="#8443ab" stroke="#8443ab"></path><path d="M78 206L189 208L170 164Z" fill="#7a37a1" stroke="#7a37a1"></path><path d="M94 279L67 335L94 311Z" fill="#8746ae" stroke="#8746ae"></path><path d="M94 311L67 335L158 354Z" fill="#8a49b1" stroke="#8a49b1"></path><path d="M277 600L280 600L278 548Z" fill="#9251b8" stroke="#9251b8"></path><path d="M93 105L90 150L119 135Z" fill="#7f3da6" stroke="#7f3da6"></path><path d="M201 0L174 28L257 18Z" fill="#7a37a1" stroke="#7a37a1"></path><path d="M90 150L78 206L170 164Z" fill="#8d4cb3" stroke="#8d4cb3"></path><path d="M90 150L170 164L119 135Z" fill="#7f3da6" stroke="#7f3da6"></path><path d="M720 0L646 0L672 131Z" fill="#8f4eb6" stroke="#8f4eb6"></path><path d="M604 12L646 0L558 0Z" fill="#8a49b1" stroke="#8a49b1"></path><path d="M219 600L277 600L278 548Z" fill="#7d3aa4" stroke="#7d3aa4"></path><path d="M255 0L201 0L257 18Z" fill="#9251b8" stroke="#9251b8"></path><path d="M694 479L749 429L672 400Z" fill="#8a49b1" stroke="#8a49b1"></path><path d="M806 164L770 164L739 211Z" fill="#8a49b1" stroke="#8a49b1"></path><path d="M93 105L119 135L141 108Z" fill="#7d3aa4" stroke="#7d3aa4"></path><path d="M554 600L588 600L572 568Z" fill="#8a49b1" stroke="#8a49b1"></path><path d="M728 534L737 519L694 479Z" fill="#9554bb" stroke="#9554bb"></path><path d="M694 479L737 519L749 429Z" fill="#8240a9" stroke="#8240a9"></path><path d="M201 0L192 0L174 28Z" fill="#8746ae" stroke="#8746ae"></path><path d="M73 44L93 105L141 108Z" fill="#8240a9" stroke="#8240a9"></path><path d="M73 254L67 335L94 279Z" fill="#8240a9" stroke="#8240a9"></path><path d="M806 308L739 211L743 341Z" fill="#8240a9" stroke="#8240a9"></path><path d="M739 211L770 164L732 208Z" fill="#8a49b1" stroke="#8a49b1"></path><path d="M732 132L755 91L672 131Z" fill="#8d4cb3" stroke="#8d4cb3"></path><path d="M139 441L102 452L190 482Z" fill="#7d3aa4" stroke="#7d3aa4"></path><path d="M198 513L219 600L278 548Z" fill="#9554bb" stroke="#9554bb"></path><path d="M84 437L102 452L139 441Z" fill="#8f4eb6" stroke="#8f4eb6"></path><path d="M84 437L96 452L102 452Z" fill="#9554bb" stroke="#9554bb"></path><path d="M102 452L107 581L198 513Z" fill="#8443ab" stroke="#8443ab"></path><path d="M73 44L141 108L174 28Z" fill="#9251b8" stroke="#9251b8"></path><path d="M90 150L23 189L78 206Z" fill="#9251b8" stroke="#9251b8"></path><path d="M59 404L84 437L158 354Z" fill="#8240a9" stroke="#8240a9"></path><path d="M770 164L755 91L732 132Z" fill="#8d4cb3" stroke="#8d4cb3"></path><path d="M804 369L806 308L743 341Z" fill="#7d3aa4" stroke="#7d3aa4"></path><path d="M770 164L806 164L755 91Z" fill="#8a49b1" stroke="#8a49b1"></path><path d="M107 581L219 600L198 513Z" fill="#8240a9" stroke="#8240a9"></path><path d="M0 353L59 404L67 335Z" fill="#8a49b1" stroke="#8a49b1"></path><path d="M67 335L59 404L158 354Z" fill="#9251b8" stroke="#9251b8"></path><path d="M749 429L804 369L725 373Z" fill="#7a37a1" stroke="#7a37a1"></path><path d="M728 534L694 479L613 551Z" fill="#8240a9" stroke="#8240a9"></path><path d="M749 429L792 436L804 369Z" fill="#8a49b1" stroke="#8a49b1"></path><path d="M680 600L728 534L613 551Z" fill="#8746ae" stroke="#8746ae"></path><path d="M877 229L806 164L739 211Z" fill="#8a49b1" stroke="#8a49b1"></path><path d="M783 456L749 429L737 519Z" fill="#9251b8" stroke="#9251b8"></path><path d="M783 456L792 436L749 429Z" fill="#9251b8" stroke="#9251b8"></path><path d="M792 436L783 456L836 512Z" fill="#8746ae" stroke="#8746ae"></path><path d="M804 369L821 346L806 308Z" fill="#8f4eb6" stroke="#8f4eb6"></path><path d="M806 308L877 229L739 211Z" fill="#8746ae" stroke="#8746ae"></path><path d="M863 381L821 346L804 369Z" fill="#8240a9" stroke="#8240a9"></path><path d="M730 0L720 0L755 91Z" fill="#9251b8" stroke="#9251b8"></path><path d="M755 91L720 0L672 131Z" fill="#8d4cb3" stroke="#8d4cb3"></path><path d="M588 600L680 600L613 551Z" fill="#8f4eb6" stroke="#8f4eb6"></path><path d="M78 206L0 223L73 254Z" fill="#9251b8" stroke="#9251b8"></path><path d="M73 254L0 291L67 335Z" fill="#8d4cb3" stroke="#8d4cb3"></path><path d="M0 105L23 189L90 150Z" fill="#8240a9" stroke="#8240a9"></path><path d="M761 12L730 0L755 91Z" fill="#7d3aa4" stroke="#7d3aa4"></path><path d="M192 0L118 0L174 28Z" fill="#9554bb" stroke="#9554bb"></path><path d="M93 105L0 105L90 150Z" fill="#8240a9" stroke="#8240a9"></path><path d="M680 600L688 600L728 534Z" fill="#7f3da6" stroke="#7f3da6"></path><path d="M836 512L783 456L737 519Z" fill="#7f3da6" stroke="#7f3da6"></path><path d="M118 0L73 44L174 28Z" fill="#8240a9" stroke="#8240a9"></path><path d="M0 223L0 291L73 254Z" fill="#9251b8" stroke="#9251b8"></path><path d="M0 291L0 323L67 335Z" fill="#8a49b1" stroke="#8a49b1"></path><path d="M832 77L761 12L755 91Z" fill="#8746ae" stroke="#8746ae"></path><path d="M0 105L0 223L23 189Z" fill="#8f4eb6" stroke="#8f4eb6"></path><path d="M23 189L0 223L78 206Z" fill="#9251b8" stroke="#9251b8"></path><path d="M0 323L0 353L67 335Z" fill="#8a49b1" stroke="#8a49b1"></path><path d="M0 486L96 452L84 437Z" fill="#7a37a1" stroke="#7a37a1"></path><path d="M9 529L107 581L96 452Z" fill="#8a49b1" stroke="#8a49b1"></path><path d="M96 452L107 581L102 452Z" fill="#9554bb" stroke="#9554bb"></path><path d="M0 462L84 437L59 404Z" fill="#7a37a1" stroke="#7a37a1"></path><path d="M806 164L832 90L755 91Z" fill="#8443ab" stroke="#8443ab"></path><path d="M869 145L832 90L806 164Z" fill="#7d3aa4" stroke="#7d3aa4"></path><path d="M792 436L863 381L804 369Z" fill="#8f4eb6" stroke="#8f4eb6"></path><path d="M890 347L877 229L806 308Z" fill="#8f4eb6" stroke="#8f4eb6"></path><path d="M900 399L863 381L900 434Z" fill="#7d3aa4" stroke="#7d3aa4"></path><path d="M836 512L737 519L817 600Z" fill="#7a37a1" stroke="#7a37a1"></path><path d="M900 80L832 77L832 90Z" fill="#9251b8" stroke="#9251b8"></path><path d="M832 90L832 77L755 91Z" fill="#8240a9" stroke="#8240a9"></path><path d="M890 347L806 308L821 346Z" fill="#8443ab" stroke="#8443ab"></path><path d="M0 82L93 105L73 44Z" fill="#8443ab" stroke="#8443ab"></path><path d="M0 82L0 105L93 105Z" fill="#7a37a1" stroke="#7a37a1"></path><path d="M877 229L869 145L806 164Z" fill="#8f4eb6" stroke="#8f4eb6"></path><path d="M0 353L0 462L59 404Z" fill="#8746ae" stroke="#8746ae"></path><path d="M62 600L90 600L107 581Z" fill="#8443ab" stroke="#8443ab"></path><path d="M107 581L90 600L219 600Z" fill="#8443ab" stroke="#8443ab"></path><path d="M118 0L49 0L73 44Z" fill="#8f4eb6" stroke="#8f4eb6"></path><path d="M49 0L0 82L73 44Z" fill="#8240a9" stroke="#8240a9"></path><path d="M863 381L890 347L821 346Z" fill="#8746ae" stroke="#8746ae"></path><path d="M877 229L900 200L869 145Z" fill="#8240a9" stroke="#8240a9"></path><path d="M817 600L737 519L728 534Z" fill="#8d4cb3" stroke="#8d4cb3"></path><path d="M900 399L900 348L890 347Z" fill="#8a49b1" stroke="#8a49b1"></path><path d="M0 462L0 486L84 437Z" fill="#8443ab" stroke="#8443ab"></path><path d="M900 348L900 211L877 229Z" fill="#8a49b1" stroke="#8a49b1"></path><path d="M900 399L890 347L863 381Z" fill="#8d4cb3" stroke="#8d4cb3"></path><path d="M890 347L900 348L877 229Z" fill="#8746ae" stroke="#8746ae"></path><path d="M900 211L900 200L877 229Z" fill="#8d4cb3" stroke="#8d4cb3"></path><path d="M900 20L853 0L832 77Z" fill="#7a37a1" stroke="#7a37a1"></path><path d="M9 529L62 600L107 581Z" fill="#8443ab" stroke="#8443ab"></path><path d="M0 486L9 529L96 452Z" fill="#8746ae" stroke="#8746ae"></path><path d="M900 434L863 381L792 436Z" fill="#8240a9" stroke="#8240a9"></path><path d="M900 459L900 434L792 436Z" fill="#9251b8" stroke="#9251b8"></path><path d="M0 486L0 550L9 529Z" fill="#7d3aa4" stroke="#7d3aa4"></path><path d="M9 529L0 550L62 600Z" fill="#8d4cb3" stroke="#8d4cb3"></path><path d="M900 575L886 488L836 512Z" fill="#8746ae" stroke="#8746ae"></path><path d="M836 512L886 488L792 436Z" fill="#8746ae" stroke="#8746ae"></path><path d="M688 600L817 600L728 534Z" fill="#9554bb" stroke="#9554bb"></path><path d="M49 0L0 0L0 82Z" fill="#8240a9" stroke="#8240a9"></path><path d="M886 488L900 459L792 436Z" fill="#8a49b1" stroke="#8a49b1"></path><path d="M900 80L832 90L869 145Z" fill="#8a49b1" stroke="#8a49b1"></path><path d="M832 77L853 0L761 12Z" fill="#8746ae" stroke="#8746ae"></path><path d="M761 12L853 0L730 0Z" fill="#7a37a1" stroke="#7a37a1"></path><path d="M900 200L900 80L869 145Z" fill="#9251b8" stroke="#9251b8"></path><path d="M0 550L0 600L62 600Z" fill="#9554bb" stroke="#9554bb"></path><path d="M817 600L852 600L836 512Z" fill="#7f3da6" stroke="#7f3da6"></path><path d="M886 488L900 575L900 459Z" fill="#7f3da6" stroke="#7f3da6"></path><path d="M900 80L900 20L832 77Z" fill="#9554bb" stroke="#9554bb"></path><path d="M900 20L900 0L853 0Z" fill="#9251b8" stroke="#9251b8"></path><path d="M852 600L900 575L836 512Z" fill="#7a37a1" stroke="#7a37a1"></path><path d="M852 600L900 600L900 575Z" fill="#7d3aa4" stroke="#7d3aa4"></path></g></svg>