<svg id="visual" viewBox="0 0 900 600" width="900" height="600" xmlns="http://www.w3.org/2000/svg" xmlns:xlink="http://www.w3.org/1999/xlink" version="1.1"><path d="M0 55L90 67L180 55L270 49L360 55L450 61L540 61L630 67L720 49L810 61L900 61L900 0L810 0L720 0L630 0L540 0L450 0L360 0L270 0L180 0L90 0L0 0Z" fill="#8943b2"></path><path d="M0 115L90 139L180 127L270 109L360 121L450 133L540 121L630 127L720 115L810 115L900 115L900 59L810 59L720 47L630 65L540 59L450 59L360 53L270 47L180 53L90 65L0 53Z" fill="#904eb6"></path><path d="M0 271L90 307L180 271L270 283L360 307L450 313L540 259L630 307L720 265L810 307L900 265L900 113L810 113L720 113L630 125L540 119L450 131L360 119L270 107L180 125L90 137L0 113Z" fill="#975abb"></path><path d="M0 385L90 391L180 379L270 379L360 397L450 391L540 361L630 385L720 349L810 391L900 373L900 263L810 305L720 263L630 305L540 257L450 311L360 305L270 281L180 269L90 305L0 269Z" fill="#9d64bf"></path><path d="M0 451L90 457L180 463L270 469L360 469L450 469L540 427L630 451L720 421L810 463L900 463L900 371L810 389L720 347L630 383L540 359L450 389L360 395L270 377L180 377L90 389L0 383Z" fill="#a46fc3"></path><path d="M0 601L90 601L180 601L270 601L360 601L450 601L540 601L630 601L720 601L810 601L900 601L900 461L810 461L720 419L630 449L540 425L450 467L360 467L270 467L180 461L90 455L0 449Z" fill="#aa79c7"></path></svg>