<svg id="visual" viewBox="0 0 900 600" width="900" height="600" xmlns="http://www.w3.org/2000/svg" xmlns:xlink="http://www.w3.org/1999/xlink" version="1.1"><path d="M0 199L82 199L82 247L164 247L164 91L245 91L245 199L327 199L327 211L409 211L409 157L491 157L491 295L573 295L573 133L655 133L655 181L736 181L736 277L818 277L818 235L900 235L900 127L900 0L900 0L818 0L818 0L736 0L736 0L655 0L655 0L573 0L573 0L491 0L491 0L409 0L409 0L327 0L327 0L245 0L245 0L164 0L164 0L82 0L82 0L0 0Z" fill="#a62bed"></path><path d="M0 289L82 289L82 379L164 379L164 325L245 325L245 295L327 295L327 307L409 307L409 409L491 409L491 403L573 403L573 283L655 283L655 271L736 271L736 397L818 397L818 355L900 355L900 283L900 125L900 233L818 233L818 275L736 275L736 179L655 179L655 131L573 131L573 293L491 293L491 155L409 155L409 209L327 209L327 197L245 197L245 89L164 89L164 245L82 245L82 197L0 197Z" fill="#9c30dd"></path><path d="M0 397L82 397L82 487L164 487L164 373L245 373L245 337L327 337L327 373L409 373L409 451L491 451L491 445L573 445L573 355L655 355L655 379L736 379L736 457L818 457L818 433L900 433L900 355L900 281L900 353L818 353L818 395L736 395L736 269L655 269L655 281L573 281L573 401L491 401L491 407L409 407L409 305L327 305L327 293L245 293L245 323L164 323L164 377L82 377L82 287L0 287Z" fill="#9333cd"></path><path d="M0 481L82 481L82 553L164 553L164 475L245 475L245 439L327 439L327 463L409 463L409 499L491 499L491 529L573 529L573 445L655 445L655 475L736 475L736 505L818 505L818 529L900 529L900 457L900 353L900 431L818 431L818 455L736 455L736 377L655 377L655 353L573 353L573 443L491 443L491 449L409 449L409 371L327 371L327 335L245 335L245 371L164 371L164 485L82 485L82 395L0 395Z" fill="#8a35bd"></path><path d="M0 601L82 601L82 601L164 601L164 601L245 601L245 601L327 601L327 601L409 601L409 601L491 601L491 601L573 601L573 601L655 601L655 601L736 601L736 601L818 601L818 601L900 601L900 601L900 455L900 527L818 527L818 503L736 503L736 473L655 473L655 443L573 443L573 527L491 527L491 497L409 497L409 461L327 461L327 437L245 437L245 473L164 473L164 551L82 551L82 479L0 479Z" fill="#8137ad"></path></svg>