<svg id="visual" viewBox="0 0 900 600" width="900" height="600" xmlns="http://www.w3.org/2000/svg" xmlns:xlink="http://www.w3.org/1999/xlink" version="1.1"><rect x="0" y="0" width="900" height="600" fill="#c5a6d6"></rect><g fill="none" stroke="#242325" stroke-width="4"><path d="M0 -111.4L25 -34.4L105.9 -34.4L40.5 13.1L65.5 90.1L0 42.5L-65.5 90.1L-40.5 13.1L-105.9 -34.4L-25 -34.4Z" transform="translate(442 434)"></path><path d="M0 -49.1L11 -15.2L46.7 -15.2L17.8 5.8L28.8 39.7L0 18.7L-28.8 39.7L-17.8 5.8L-46.7 -15.2L-11 -15.2Z" transform="translate(535 116)"></path><path d="M0 -75.5L17 -23.3L71.8 -23.3L27.4 8.9L44.4 61.1L0 28.8L-44.4 61.1L-27.4 8.9L-71.8 -23.3L-17 -23.3Z" transform="translate(781 49)"></path><path d="M0 -105.7L23.7 -32.7L100.5 -32.7L38.4 12.5L62.1 85.5L0 40.4L-62.1 85.5L-38.4 12.5L-100.5 -32.7L-23.7 -32.7Z" transform="translate(269 258)"></path></g></svg>