<svg id="visual" viewBox="0 0 900 600" width="900" height="600" xmlns="http://www.w3.org/2000/svg" xmlns:xlink="http://www.w3.org/1999/xlink" version="1.1"><rect x="0" y="0" width="900" height="600" fill="#852db7"></rect><g fill="#9215db"><path d="M13.2 7.6L13.2 34.1L-13.2 34.1L-13.2 7.6L-36.1 -5.6L-22.9 -28.5L0 -15.3L22.9 -28.5L36.1 -5.6Z" transform="translate(813 268)"></path><path d="M5.1 3L5.1 13.2L-5.1 13.2L-5.1 3L-14 -2.2L-8.9 -11L0 -5.9L8.9 -11L14 -2.2Z" transform="translate(332 138)"></path><path d="M11.1 6.4L11.1 28.5L-11.1 28.5L-11.1 6.4L-30.2 -4.7L-19.2 -23.8L0 -12.8L19.2 -23.8L30.2 -4.7Z" transform="translate(284 498)"></path><path d="M7.6 4.4L7.6 19.5L-7.6 19.5L-7.6 4.4L-20.6 -3.2L-13.1 -16.3L0 -8.7L13.1 -16.3L20.6 -3.2Z" transform="translate(523 530)"></path><path d="M9.2 5.3L9.2 23.6L-9.2 23.6L-9.2 5.3L-25.1 -3.9L-15.9 -19.8L0 -10.6L15.9 -19.8L25.1 -3.9Z" transform="translate(243 374)"></path><path d="M5.1 3L5.1 13.2L-5.1 13.2L-5.1 3L-14 -2.2L-8.9 -11L0 -5.9L8.9 -11L14 -2.2Z" transform="translate(669 218)"></path><path d="M5.4 3.1L5.4 13.9L-5.4 13.9L-5.4 3.1L-14.7 -2.3L-9.3 -11.6L0 -6.2L9.3 -11.6L14.7 -2.3Z" transform="translate(557 315)"></path><path d="M10 5.8L10 25.7L-10 25.7L-10 5.8L-27.3 -4.2L-17.3 -21.5L0 -11.5L17.3 -21.5L27.3 -4.2Z" transform="translate(3 103)"></path><path d="M6.2 3.6L6.2 16L-6.2 16L-6.2 3.6L-17 -2.6L-10.8 -13.4L0 -7.2L10.8 -13.4L17 -2.6Z" transform="translate(91 161)"></path><path d="M7.8 4.5L7.8 20.2L-7.8 20.2L-7.8 4.5L-21.4 -3.3L-13.6 -16.9L0 -9L13.6 -16.9L21.4 -3.3Z" transform="translate(461 156)"></path><path d="M6.2 3.6L6.2 16L-6.2 16L-6.2 3.6L-17 -2.6L-10.8 -13.4L0 -7.2L10.8 -13.4L17 -2.6Z" transform="translate(360 332)"></path><path d="M9.7 5.6L9.7 25L-9.7 25L-9.7 5.6L-26.5 -4.1L-16.8 -20.9L0 -11.2L16.8 -20.9L26.5 -4.1Z" transform="translate(497 17)"></path><path d="M12.7 7.3L12.7 32.7L-12.7 32.7L-12.7 7.3L-34.7 -5.4L-22 -27.3L0 -14.6L22 -27.3L34.7 -5.4Z" transform="translate(771 464)"></path><path d="M10.5 6.1L10.5 27.1L-10.5 27.1L-10.5 6.1L-28.8 -4.4L-18.2 -22.7L0 -12.2L18.2 -22.7L28.8 -4.4Z" transform="translate(406 559)"></path><path d="M5.9 3.4L5.9 15.3L-5.9 15.3L-5.9 3.4L-16.2 -2.5L-10.3 -12.8L0 -6.9L10.3 -12.8L16.2 -2.5Z" transform="translate(199 46)"></path><path d="M5.9 3.4L5.9 15.3L-5.9 15.3L-5.9 3.4L-16.2 -2.5L-10.3 -12.8L0 -6.9L10.3 -12.8L16.2 -2.5Z" transform="translate(167 590)"></path><path d="M12.7 7.3L12.7 32.7L-12.7 32.7L-12.7 7.3L-34.7 -5.4L-22 -27.3L0 -14.6L22 -27.3L34.7 -5.4Z" transform="translate(107 392)"></path><path d="M12.4 7.2L12.4 32L-12.4 32L-12.4 7.2L-33.9 -5.2L-21.5 -26.7L0 -14.3L21.5 -26.7L33.9 -5.2Z" transform="translate(844 88)"></path><path d="M8.4 4.8L8.4 21.6L-8.4 21.6L-8.4 4.8L-22.9 -3.5L-14.5 -18L0 -9.7L14.5 -18L22.9 -3.5Z" transform="translate(897 478)"></path><path d="M9.4 5.5L9.4 24.3L-9.4 24.3L-9.4 5.5L-25.8 -4L-16.4 -20.4L0 -10.9L16.4 -20.4L25.8 -4Z" transform="translate(394 8)"></path><path d="M11.6 6.7L11.6 29.9L-11.6 29.9L-11.6 6.7L-31.7 -4.9L-20.1 -25L0 -13.4L20.1 -25L31.7 -4.9Z" transform="translate(641 512)"></path><path d="M12.1 7L12.1 31.3L-12.1 31.3L-12.1 7L-33.2 -5.1L-21 -26.2L0 -14L21 -26.2L33.2 -5.1Z" transform="translate(639 401)"></path><path d="M9.7 5.6L9.7 25L-9.7 25L-9.7 5.6L-26.5 -4.1L-16.8 -20.9L0 -11.2L16.8 -20.9L26.5 -4.1Z" transform="translate(801 587)"></path><path d="M12.7 7.3L12.7 32.7L-12.7 32.7L-12.7 7.3L-34.7 -5.4L-22 -27.3L0 -14.6L22 -27.3L34.7 -5.4Z" transform="translate(562 94)"></path><path d="M12.1 7L12.1 31.3L-12.1 31.3L-12.1 7L-33.2 -5.1L-21 -26.2L0 -14L21 -26.2L33.2 -5.1Z" transform="translate(196 197)"></path><path d="M5.9 3.4L5.9 15.3L-5.9 15.3L-5.9 3.4L-16.2 -2.5L-10.3 -12.8L0 -6.9L10.3 -12.8L16.2 -2.5Z" transform="translate(705 73)"></path><path d="M12.1 7L12.1 31.3L-12.1 31.3L-12.1 7L-33.2 -5.1L-21 -26.2L0 -14L21 -26.2L33.2 -5.1Z" transform="translate(122 279)"></path><path d="M8.6 5L8.6 22.3L-8.6 22.3L-8.6 5L-23.6 -3.6L-15 -18.6L0 -10L15 -18.6L23.6 -3.6Z" transform="translate(448 377)"></path><path d="M4.9 2.8L4.9 12.5L-4.9 12.5L-4.9 2.8L-13.3 -2.1L-8.4 -10.5L0 -5.6L8.4 -10.5L13.3 -2.1Z" transform="translate(78 485)"></path><path d="M7.3 4.2L7.3 18.8L-7.3 18.8L-7.3 4.2L-19.9 -3.1L-12.6 -15.7L0 -8.4L12.6 -15.7L19.9 -3.1Z" transform="translate(23 574)"></path><path d="M7 4.1L7 18.1L-7 18.1L-7 4.1L-19.2 -3L-12.2 -15.1L0 -8.1L12.2 -15.1L19.2 -3Z" transform="translate(280 248)"></path><path d="M7 4.1L7 18.1L-7 18.1L-7 4.1L-19.2 -3L-12.2 -15.1L0 -8.1L12.2 -15.1L19.2 -3Z" transform="translate(5 391)"></path><path d="M6.5 3.7L6.5 16.7L-6.5 16.7L-6.5 3.7L-17.7 -2.7L-11.2 -14L0 -7.5L11.2 -14L17.7 -2.7Z" transform="translate(309 597)"></path><path d="M6.2 3.6L6.2 16L-6.2 16L-6.2 3.6L-17 -2.6L-10.8 -13.4L0 -7.2L10.8 -13.4L17 -2.6Z" transform="translate(864 371)"></path><path d="M9.2 5.3L9.2 23.6L-9.2 23.6L-9.2 5.3L-25.1 -3.9L-15.9 -19.8L0 -10.6L15.9 -19.8L25.1 -3.9Z" transform="translate(710 333)"></path><path d="M8.4 4.8L8.4 21.6L-8.4 21.6L-8.4 4.8L-22.9 -3.5L-14.5 -18L0 -9.7L14.5 -18L22.9 -3.5Z" transform="translate(177 474)"></path><path d="M10.5 6.1L10.5 27.1L-10.5 27.1L-10.5 6.1L-28.8 -4.4L-18.2 -22.7L0 -12.2L18.2 -22.7L28.8 -4.4Z" transform="translate(621 9)"></path><path d="M8.4 4.8L8.4 21.6L-8.4 21.6L-8.4 4.8L-22.9 -3.5L-14.5 -18L0 -9.7L14.5 -18L22.9 -3.5Z" transform="translate(885 192)"></path><path d="M11.6 6.7L11.6 29.9L-11.6 29.9L-11.6 6.7L-31.7 -4.9L-20.1 -25L0 -13.4L20.1 -25L31.7 -4.9Z" transform="translate(53 6)"></path><path d="M8.4 4.8L8.4 21.6L-8.4 21.6L-8.4 4.8L-22.9 -3.5L-14.5 -18L0 -9.7L14.5 -18L22.9 -3.5Z" transform="translate(689 597)"></path><path d="M12.7 7.3L12.7 32.7L-12.7 32.7L-12.7 7.3L-34.7 -5.4L-22 -27.3L0 -14.6L22 -27.3L34.7 -5.4Z" transform="translate(28 237)"></path><path d="M8.4 4.8L8.4 21.6L-8.4 21.6L-8.4 4.8L-22.9 -3.5L-14.5 -18L0 -9.7L14.5 -18L22.9 -3.5Z" transform="translate(356 430)"></path><path d="M5.9 3.4L5.9 15.3L-5.9 15.3L-5.9 3.4L-16.2 -2.5L-10.3 -12.8L0 -6.9L10.3 -12.8L16.2 -2.5Z" transform="translate(756 164)"></path><path d="M11.3 6.5L11.3 29.2L-11.3 29.2L-11.3 6.5L-31 -4.8L-19.6 -24.4L0 -13.1L19.6 -24.4L31 -4.8Z" transform="translate(456 277)"></path><path d="M12.7 7.3L12.7 32.7L-12.7 32.7L-12.7 7.3L-34.7 -5.4L-22 -27.3L0 -14.6L22 -27.3L34.7 -5.4Z" transform="translate(554 197)"></path><path d="M6.7 3.9L6.7 17.4L-6.7 17.4L-6.7 3.9L-18.4 -2.9L-11.7 -14.5L0 -7.8L11.7 -14.5L18.4 -2.9Z" transform="translate(302 43)"></path></g></svg>